<svg xmlns="http://www.w3.org/2000/svg" xmlns:xlink="http://www.w3.org/1999/xlink" width="100" height="100"><defs><linearGradient id="b"><stop offset="0" style="stop-color:#009ced;stop-opacity:1"/><stop offset="1" style="stop-color:#fff;stop-opacity:1"/></linearGradient><linearGradient id="a"><stop offset="0" style="stop-color:#080817;stop-opacity:1"/><stop offset="1" style="stop-color:#1d153b;stop-opacity:1"/></linearGradient><linearGradient xlink:href="#a" id="c" x1="7.34" x2="89.97" y1="21.62" y2="81.81" gradientUnits="userSpaceOnUse"/><linearGradient xlink:href="#b" id="d" x1="12.28" x2="81.14" y1="20.51" y2="77.03" gradientTransform="translate(-2.6 -3.05)" gradientUnits="userSpaceOnUse"/></defs><path d="M0 0h100v100H0z" style="fill:url(#c);stroke-width:8.2332;stroke-linecap:round"/><path d="M48.19 20.5 68.2 71.04h6.75L54.94 20.49Zm12.02.04 17.5 44.17h6.75l-17.5-44.17Zm-23.32 1.72 22.67 57.25h6.76L43.64 22.26Zm-10.9 2.8L42.14 65.8h6.76L32.75 25.06Zm-9.9 5.27 11.2 28.3h6.76l-11.21-28.3Zm60.33.84L84 50.33h6.75l-7.59-19.16ZM9.24 43.6 14 55.36h6.75L16 43.6z" style="fill:url(#d);stroke-width:6.65858;stroke-linecap:round"/></svg>