<svg xmlns="http://www.w3.org/2000/svg" xmlns:xlink="http://www.w3.org/1999/xlink" width="100" height="100">
    <defs>
        <linearGradient id="b">
            <stop offset="0" style="stop-color:#009ced;stop-opacity:1"/>
            <stop offset="1" style="stop-color:#fff;stop-opacity:1"/>
        </linearGradient>
        <linearGradient id="a">
            <stop offset="0" style="stop-color:#080817;stop-opacity:1"/>
            <stop offset="1" style="stop-color:#1d153b;stop-opacity:1"/>
        </linearGradient>
        <linearGradient href="#a" id="c" x1="7.34" x2="89.97" y1="21.62" y2="81.81"
                        gradientUnits="userSpaceOnUse"/>
        <linearGradient href="#b" id="d" x1="12.28" x2="81.14" y1="20.51" y2="77.03"
                        gradientTransform="translate(-2.6 -3.05)" gradientUnits="userSpaceOnUse"/>
    </defs>
    <path d="M0 0h100v100H0z" style="fill:url(#c);"/>
    <path d="M63 83.2S49.7 40.3 45.2 23.9l8.8-1.4c4.6 17 18.2 60.7 18.2 60.7zM73.2 71C64.8 40.3 59.9 26.2 59 22.5l9.4.8 12.2 41L79 71zm-30-3.6-11.7-40 8.6-2.4 12.5 42.4zm-9.9 0-6.5-6.3-8.4-28.2 8.1-3.9 11 38.4zm-21-7.2L8.3 47 14 37l7 23.3ZM73.8 25l10 7L91 56l-7 3.6z"
          style="fill:url(#d);"/>
</svg>