<svg xmlns="http://www.w3.org/2000/svg" xmlns:xlink="http://www.w3.org/1999/xlink" width="100" height="100">
    <defs>
        <linearGradient id="b">
            <stop offset="0" style="stop-color:#009ced;stop-opacity:1"/>
            <stop offset="1" style="stop-color:#fff;stop-opacity:1"/>
        </linearGradient>
        <linearGradient id="a">
            <stop offset="0" style="stop-color:#080817;stop-opacity:1"/>
            <stop offset="1" style="stop-color:#1d153b;stop-opacity:1"/>
        </linearGradient>
        <linearGradient href="#a" id="c" x1="7.34" x2="89.97" y1="21.62" y2="81.81"
                        gradientUnits="userSpaceOnUse"/>
        <linearGradient href="#b" id="d" x1="12.28" x2="81.14" y1="20.51" y2="77.03"
                        gradientTransform="translate(-2.6 -3.05)" gradientUnits="userSpaceOnUse"/>
    </defs>
    <path d="M0 0h100v100H0z" style="fill:url(#c);"/>
    <path d="M63 83.2s-14.4-44.6-19-61l8.8-1.4c4.7 17 19.4 62.4 19.4 62.4zM73.2 71c-8.4-30.7-14.5-46.6-15.3-50.3l9.4.8 13.3 42.8L79 71zm-30-3.6L30.5 25.6l8.6-2.4 13.6 44.2Zm-9.9 0-6.5-6.3-9.1-27.7 7.7-6.1 12 40.1zm-21-7.2-2.7-8.8 4-13.3 7.2 22zm60.4-37 9.9 7L91 56l-7 3.6z"
          style="fill:url(#d);"/>
</svg>