<?xml version="1.0" encoding="UTF-8"?>
<!-- Created with Inkscape (http://www.inkscape.org/) -->
<svg width="333mm" height="26.4mm" version="1.1" viewBox="0 0 333 26.4" xml:space="preserve" xmlns="http://www.w3.org/2000/svg" xmlns:xlink="http://www.w3.org/1999/xlink"><defs><linearGradient id="linearGradient30" x1="-15.6" x2="49.2" y1="101" y2="149" gradientUnits="userSpaceOnUse"><stop stop-color="#1700d3" offset="0"/><stop stop-color="#3ca5c3" offset="1"/></linearGradient></defs><g transform="translate(38.9 -114)"><path d="m145 140c-3.51-0.512-5.71-2.67-6.15-6.02l-0.181-1.36h3.77v0.914c0 1.24 0.449 2.13 1.29 2.55 0.785 0.394 8.84 0.67 10.8 0.371 1.54-0.23 2.34-1.05 2.57-2.61l0.184-1.22h1.69c1.68 0 1.69 6e-3 1.69 0.746 0 1.23-0.761 3.41-1.5 4.28-0.931 1.11-2.85 2.04-4.89 2.37-1.96 0.318-7.09 0.312-9.31-0.0123zm-31.9-3.81v-3.57h3.7v7.14h-3.7zm15 3.35c-0.219-0.355-2-3.76-4.65-8.91-1.35-2.62-3.36-6.49-4.47-8.6l-2.02-3.84-0.143 10.7h-3.69v-14.8h5.46l1.1 2.18c0.605 1.2 2.15 4.21 3.44 6.68 1.28 2.47 3.34 6.44 4.57 8.8l2.24 4.31 0.156-3.45h3.68v7.14h-2.76c-1.52 0-2.82-0.1-2.9-0.223zm37.9-3.35v-3.57h3.44v7.14h-3.44zm8.85-6.87c-2.76-5.75-5.1-10.5-5.21-10.5s-0.198 2.26-0.198 5.03v5.03h-3.44v-14.8l5.6 0.15 5.01 10.4c2.76 5.75 5.1 10.5 5.21 10.6 0.107 0.107 2.5-4.62 5.33-10.5l5.13-10.7h5.47v14.8h-3.44v-5.08c0-3.2-0.0929-4.99-0.25-4.83-0.138 0.138-2.45 4.84-5.14 10.4l-4.88 10.2-4.18 0.152zm19.5 6.87v-3.57h3.44v7.14h-3.44zm8.73 0.0163v-3.59h3.7v3.7h3.13c4.9 0 7.32-0.618 7.96-2.04 0.355-0.779 0.373-2.73 0.0344-3.62-0.356-0.936-1.27-1.45-3.15-1.79l-1.62-0.286v-3.38h1.33c1.58 0 3.01-0.54 3.41-1.28 0.157-0.294 0.286-1.32 0.286-2.29 0-3.47-0.421-3.65-8.8-3.79l-6.28-0.1v-3.71l6.42 0.112c5.88 0.102 6.54 0.162 7.94 0.709 1.88 0.736 2.95 1.61 3.71 3.04 0.471 0.887 0.58 1.54 0.584 3.47 5e-3 2.57-0.377 3.75-1.61 4.98l-0.634 0.634 0.555 0.502c1.25 1.13 1.69 2.46 1.69 5.13 0 2.07-0.101 2.7-0.569 3.57-0.743 1.38-1.52 2.09-3.14 2.83-1.25 0.576-1.68 0.613-8.13 0.691l-6.81 0.0824zm23.9 0.0499 0.0738-3.51 3.57-0.156v3.73h15.1v3.44h-18.8zm23.8-9.26 0.0687-12.8 6.22 1e-3c7.16 1e-3 8.41 0.244 10.4 2.02 1.41 1.24 2 2.79 2 5.27 0 4.81-2.58 7.03-8.53 7.33l-2.84 0.141v-3.46l2.84-0.108c3.4-0.129 4.36-0.52 4.84-1.97 0.406-1.23 0.166-3.7-0.424-4.35-0.834-0.921-2.19-1.16-6.6-1.17l-4.23-6e-3 -0.138 21.8h-3.7zm13.2 9.37c-1.03-1.87-1.87-3.47-1.87-3.57 0-0.0993 0.767-0.181 1.7-0.181h1.7l1.51 2.71c0.828 1.49 1.74 3.1 2.02 3.57l0.515 0.86h-3.71zm10.8 1.7v-1.69l5.89-0.0978c5.33-0.0886 6-0.151 7.12-0.664 1.58-0.723 2.18-1.78 2.01-3.57-0.232-2.41-1.46-3.07-6.26-3.39-4.01-0.263-5.55-0.753-7.02-2.23-1.27-1.27-1.73-2.6-1.73-4.95 2e-3 -2.53 0.402-3.63 1.82-5.01 2.05-1.99 3.2-2.23 10.6-2.24l6.22-1e-3 0.155 3.52-6.3 0.0907c-5.66 0.0815-6.4 0.144-7.35 0.62-1.27 0.635-1.71 1.44-1.72 3.09-9e-3 2.92 0.709 3.42 5.38 3.7 4.2 0.256 5.59 0.556 7.15 1.55 1.8 1.14 2.59 2.89 2.61 5.71 0.0172 3.75-1.45 5.88-4.71 6.87-0.94 0.283-2.86 0.379-7.57 0.379h-6.31zm-145-16.6v-7.42l3.57 0.156 0.141 14.7h-3.71zm8.79 0.0782 0.0703-7.34 3.57-0.156v14.8h-3.71zm18.5-0.0661v-7.41h3.44v14.8h-3.44zm69.8 7.23c-0.097-0.097-0.176-0.93-0.176-1.85v-1.68h18.8v3.7h-9.22c-5.07 0-9.3-0.0794-9.39-0.176zm-0.122-12.7 0.0782-1.79 18.7-0.139v3.71h-18.8z" fill="#fff"/><path d="m-6.9 140c-3.8-0.673-6.08-3.07-6.09-6.39l-0.0015-0.992h3.34l0.247 1.37c0.186 1.03 0.432 1.5 0.994 1.92 0.701 0.518 1.08 0.552 6.23 0.552 4.84 0 5.57-0.0562 6.21-0.477 0.4-0.262 0.842-0.776 0.981-1.14 0.329-0.867 0.329-14.7 0-15.5-0.531-1.4-1.31-1.61-6.2-1.71-5.29-0.105-6.54 0.0408-7.51 0.877l-0.723 0.621-0.174 9.84h-3.4v-5c0-4.95 0.0062-5.01 0.739-6.42 0.957-1.84 2.74-2.96 5.41-3.41 2.53-0.426 9.46-0.212 11 0.34 2.26 0.814 3.74 2.26 4.3 4.19 0.142 0.494 0.257 4.3 0.257 8.46 0 8.83-0.103 9.38-2.05 11.1-1.74 1.54-3.16 1.89-8.01 2-2.26 0.05-4.75-0.0248-5.55-0.166zm57.6 0.0142c-1.88-0.296-3.99-1.4-4.87-2.55-0.721-0.945-1.4-2.93-1.4-4.1v-0.752h3.7l0.0039 0.992c0.0055 1.4 0.526 2.27 1.59 2.63 1.16 0.397 9.79 0.451 11.2 0.0693 1.79-0.497 1.79-0.516 1.79-9.25s-0.0037-8.75-1.79-9.25c-1.37-0.381-10-0.328-11.2 0.0693-1.44 0.496-1.59 1.07-1.59 6.34l-0.0039 4.7h-3.7v-4.45c0-5.48 0.312-6.81 1.98-8.42 1.85-1.78 3.11-2.08 8.86-2.08 5.33 0 6.56 0.208 8.33 1.42 2.56 1.75 2.85 3.07 2.73 12.5-0.0841 7.13-0.0928 7.22-0.76 8.53-0.733 1.44-2.46 2.81-4.17 3.32-1.29 0.383-8.76 0.555-10.7 0.247zm27-2e-3c-1.99-0.313-3.99-1.45-4.99-2.82-0.619-0.855-0.814-1.45-0.925-2.83l-0.14-1.75h3.51v1.08c0 2.49 1.02 2.89 7.22 2.89 2.51-8.2e-4 5-0.125 5.54-0.275 1.79-0.497 1.79-0.516 1.79-9.25s-0.0037-8.75-1.79-9.25c-1.28-0.355-9.69-0.355-11 0-1.69 0.47-1.79 0.822-1.79 6.26v4.84h-3.48l0.0856-5.38c0.0854-5.36 0.0874-5.38 0.816-6.48 0.789-1.19 2.09-2.13 3.77-2.72 1.67-0.588 10.7-0.52 12.4 0.0938 1.68 0.588 3.15 1.79 3.9 3.2 0.571 1.07 0.588 1.33 0.588 9.43v8.33l-0.751 1.28c-0.792 1.35-2.48 2.62-4.13 3.11-1.26 0.376-8.75 0.54-10.7 0.234zm-117-3.83v-3.57h3.7v3.77l5.36-0.105c4.66-0.0911 5.5-0.172 6.42-0.626 1.57-0.775 1.69-1.36 1.69-8.59 0-7.22-0.116-7.81-1.69-8.6-0.966-0.483-1.69-0.537-8.28-0.618l-7.22-0.0884 0.155-3.53 6.09-0.0737c3.35-0.0406 6.9 0.0512 7.89 0.204 3.22 0.495 5.2 1.88 6.12 4.3 0.379 0.992 0.427 2.18 0.357 8.81l-0.0814 7.66-0.742 1.26c-0.408 0.694-1.2 1.57-1.76 1.94-1.96 1.3-2.96 1.43-10.8 1.43h-7.23zm52.9-9.27v-12.8l3.57 0.156 0.137 25.5h-3.71zm15.6 5.57v-7.28h3.7v14.6h-3.7zm-7.41-16.5v-1.85h18.5v3.7h-18.5z" fill="url(#linearGradient30)"/></g></svg>
