<svg xmlns="http://www.w3.org/2000/svg" width="100" height="100">
    <path d="M60 16a10.7 10.7 0 0 1-10.8 10.6A10.7 10.7 0 0 1 38.5 16 10.7 10.7 0 0 1 49.2 5.3 10.7 10.7 0 0 1 60 16zm.7 75.8c1.7-.7 4.3-2.5 5.7-4 1.4-1.4 2.6-3.4 2.6-4.5 0-.9-.1-1.8-.4-1.8l-4.4 2c-3.2 1.8-4.4 2-6.3 1.1-2-.9-2.3-1.8-2.3-4.8 0-2 1.5-12 3.3-22.1 2.6-14.2 3.2-19.1 2.5-20.6-1-1.8-2-1.9-15.8-1.6C34 35.7 31 36 31 37c0 .7.7 1.7 1.6 2.1.7.4 2.5 1 4 1.3 1.4.4 3 1.3 3.6 2.3.6 1.3.1 6.2-2 17.2-1.5 8.4-2.8 17.4-2.8 20s.7 5.8 1.4 7.3a10.7 10.7 0 0 0 3.6 3.9c1.2.8 3.3 1.5 4.6 2a34.2 34.2 0 0 0 15.7-1.4z"
          fill=""/>
</svg>