<?xml version="1.0" encoding="UTF-8"?>
<svg width="100" height="100" fill="none" version="1.1" viewBox="0 0 100 100" xml:space="preserve" xmlns="http://www.w3.org/2000/svg" xmlns:xlink="http://www.w3.org/1999/xlink"><defs><linearGradient id="linearGradient2" x1="8.5" x2="85" y1="13" y2="87" gradientUnits="userSpaceOnUse"><stop stop-color="#0aff13" offset=".00027"/><stop stop-color="#0cd5ff" stop-opacity=".82" offset=".38"/><stop stop-color="#cc08ff" offset=".78"/><stop stop-color="#ff18d9" offset="1"/></linearGradient></defs><path d="m50 1.7a48 48 0 0 0-44 69 48 48 0 0 0 53 27 9 9 0 0 0 4.7-2.6c1.5-1.7 2-2.7 2-5s-0.4-3.1-2.8-6.4c-1.7-2.4-2.3-3.6-2.3-5 0-1 0.9-2.6 2-3.9 1.3-1.5 2-1.6 8-1.6 5.4 0 7-0.2 11-1.5 9.6-3.2 15-8.4 16-16a47 47 0 0 0-21-45q-12-8-27-8m8.4 17a6 6 0 0 1 5.4 3.2c0.4 0.9 0.5 1.4 0.5 2.7 0 1.7-0.4 2.7-1.5 4a6 6 0 0 1-6 1.7 6 6 0 0 1-4.2-6.8q0.8-3.7 4.3-4.6zm-19 0a6 6 0 0 1 5.5 3.2 7 7 0 0 1 0 5 7 7 0 0 1-3 3.1c-1.1 0.4-3 0.6-4 0.2q-4.2-1.5-4.3-5.7c0-2.5 1.8-5 4.2-5.7q0.7-0.2 1.6-0.3m-14 16c3.6 0 6.2 2.8 5.9 6.3a5 5 0 0 1-1.8 3.7 6 6 0 0 1-6 1.5q-4-1.6-4-5.8c0-3.3 2.5-5.7 6-5.7m47 0c3.6 0 6.1 2.8 5.9 6.3a6 6 0 0 1-3.3 5 7 7 0 0 1-4.5 0.2q-2.8-1-3.8-3.8c-0.4-1-0.3-3.2 0.2-4.2q1.6-3.4 5.5-3.5" fill="url(#linearGradient2)" stroke="#000" stroke-linecap="round" stroke-linejoin="round" stroke-width=".78" style="paint-order:stroke fill markers"/></svg>
