<svg xmlns="http://www.w3.org/2000/svg" width="128" height="128" viewBox="0 0 128 128" fill="none">
  <defs>
    <linearGradient id="bg" x1="0" y1="0" x2="128" y2="128" gradientUnits="userSpaceOnUse">
      <stop offset="0" stop-color="#4f46e5"/>
      <stop offset="1" stop-color="#7c3aed"/>
    </linearGradient>
    <linearGradient id="glow" x1="32" y1="32" x2="96" y2="96" gradientUnits="userSpaceOnUse">
      <stop offset="0" stop-color="#a5b4fc"/>
      <stop offset="1" stop-color="#c4b5fd"/>
    </linearGradient>
  </defs>
  <rect width="128" height="128" rx="28" fill="url(#bg)"/>
  <rect x="24" y="24" width="22" height="22" rx="4" fill="rgba(255,255,255,0.15)"/>
  <rect x="53" y="24" width="22" height="22" rx="4" fill="rgba(255,255,255,0.15)"/>
  <rect x="82" y="24" width="22" height="22" rx="4" fill="rgba(255,255,255,0.15)"/>
  <rect x="24" y="53" width="22" height="22" rx="4" fill="rgba(255,255,255,0.15)"/>
  <rect x="53" y="53" width="22" height="22" rx="4" fill="url(#glow)"/>
  <rect x="82" y="53" width="22" height="22" rx="4" fill="rgba(255,255,255,0.15)"/>
  <rect x="24" y="82" width="22" height="22" rx="4" fill="rgba(255,255,255,0.15)"/>
  <rect x="53" y="82" width="22" height="22" rx="4" fill="rgba(255,255,255,0.15)"/>
  <rect x="82" y="82" width="22" height="22" rx="4" fill="url(#glow)"/>
  <text x="64" y="72" font-family="Inter,system-ui,sans-serif" font-size="16" font-weight="800" fill="#312e81" text-anchor="middle">N</text>
  <path d="M93 98 C100 108, 74 108, 64 72" stroke="rgba(255,255,255,0.5)" stroke-width="2" fill="none" stroke-dasharray="3 2"/>
</svg>