<?xml version="1.0" encoding="UTF-8"?>
<!-- Created with Inkscape (http://www.inkscape.org/) -->
<svg width="287mm" height="27mm" version="1.1" viewBox="0 0 287 27" xml:space="preserve" xmlns="http://www.w3.org/2000/svg" xmlns:xlink="http://www.w3.org/1999/xlink"><defs><linearGradient id="linearGradient4" x1="-11" x2="119" y1="31" y2="64" gradientTransform="translate(12 -34)" gradientUnits="userSpaceOnUse"><stop stop-color="#1900c9" offset="0"/><stop stop-color="#05fefb" offset="1"/></linearGradient></defs><path d="m32 27c-1.9-0.36-3.4-1-4.4-2.1-1.1-1.1-1.7-2.6-1.7-4.5l-0.03-1 3.7-0.063v0.8c0 1.9 0.42 2.6 1.8 3 0.79 0.25 0.96 0.26 5.6 0.26 4.2 0 4.8-0.024 5.5-0.2 0.95-0.26 1.4-0.63 1.7-1.3 0.2-0.51 0.21-1 0.21-8.1v-7.6l-0.29-0.57c-0.24-0.47-0.39-0.63-0.92-0.88-0.99-0.49-2.1-0.57-6.8-0.52-4.5 0.052-5.1 0.12-5.9 0.74-0.76 0.58-0.76 0.59-0.8 6l-0.034 4.8-3.7-0.063v-4.6c0-5.1 0.042-5.5 0.71-6.9 0.69-1.4 2.1-2.6 3.9-3.2 1.5-0.51 2.6-0.6 7.1-0.55 3.8 0.043 4.3 0.068 5.1 0.3 2.2 0.58 3.9 1.8 4.7 3.4 0.73 1.5 0.73 1.4 0.69 10-0.034 7.7-0.038 7.8-0.29 8.4-0.86 2.3-2.4 3.6-5.1 4.3-0.92 0.25-1.2 0.26-5.3 0.29-3.4 0.024-4.5-0.0053-5.3-0.14zm58 0c-1.9-0.36-3.4-1-4.4-2.1-1.1-1.1-1.7-2.6-1.7-4.5l-0.03-1 3.7-0.063v0.8c0 1.9 0.42 2.6 1.8 3 0.79 0.25 0.96 0.26 5.6 0.26 4.2 0 4.8-0.024 5.5-0.2 0.95-0.26 1.4-0.63 1.7-1.3 0.2-0.51 0.21-1 0.21-8.1v-7.6l-0.29-0.57c-0.24-0.47-0.39-0.63-0.92-0.88-0.99-0.49-2.1-0.57-6.8-0.52-4.5 0.052-5.1 0.12-5.9 0.74-0.76 0.58-0.76 0.59-0.8 6l-0.034 4.8-3.7-0.063v-4.6c0-5.1 0.042-5.5 0.71-6.9 0.69-1.4 2.1-2.6 3.9-3.2 1.5-0.51 2.6-0.6 7.1-0.55 3.8 0.043 4.3 0.068 5.1 0.3 2.2 0.58 3.9 1.8 4.7 3.4 0.73 1.5 0.73 1.4 0.69 10-0.034 7.7-0.038 7.8-0.29 8.4-0.86 2.3-2.4 3.6-5.1 4.3-0.92 0.25-1.2 0.26-5.3 0.29-3.4 0.024-4.5-0.0053-5.3-0.14zm27 0c-1.9-0.36-3.4-1-4.4-2.1-1.1-1.1-1.7-2.6-1.7-4.5l-0.03-1 3.7-0.063v0.8c0 1.9 0.42 2.6 1.8 3 0.79 0.25 0.96 0.26 5.6 0.26 4.2 0 4.8-0.024 5.5-0.2 0.95-0.26 1.4-0.63 1.7-1.3 0.2-0.51 0.21-1 0.21-8.1v-7.6l-0.29-0.57c-0.24-0.47-0.39-0.63-0.92-0.88-0.99-0.49-2.1-0.57-6.8-0.52-4.5 0.052-5.1 0.12-5.9 0.74-0.76 0.58-0.76 0.59-0.8 6l-0.034 4.8-3.7-0.063v-4.6c0-5.1 0.042-5.5 0.71-6.9 0.69-1.4 2.1-2.6 3.9-3.2 1.5-0.51 2.6-0.6 7.1-0.55 3.8 0.043 4.3 0.068 5.1 0.3 2.2 0.58 3.9 1.8 4.7 3.4 0.73 1.5 0.73 1.4 0.69 10-0.034 7.7-0.038 7.8-0.29 8.4-0.86 2.3-2.4 3.6-5.1 4.3-0.92 0.25-1.2 0.26-5.3 0.29-3.4 0.024-4.5-0.0053-5.3-0.14zm-118-3.9v-3.7h3.9v3.7l4.6-8.2e-4c4.9-9.1e-4 6.1-0.096 7.2-0.57 0.33-0.14 0.75-0.43 0.93-0.64 0.65-0.74 0.64-0.66 0.64-8.1v-6.9l-0.29-0.57c-0.36-0.72-1.1-1.2-2.1-1.5-0.69-0.18-1.6-0.21-7.8-0.25l-7-0.045v-3.8h6.9c5.7 0 7 0.031 7.9 0.18 2.8 0.49 4.6 1.7 5.5 3.6 0.25 0.52 0.51 1.3 0.58 1.6 0.078 0.43 0.12 3.2 0.12 7.7 0 6.6-0.012 7.1-0.23 7.9-0.55 2.1-1.9 3.6-4.2 4.4-1.7 0.64-2.2 0.67-9.7 0.67h-6.9zm53-9.3v-13h3.9v26h-3.9zm16 5.6v-7.5h3.8v15h-3.8zm-7.7-17v-1.9h19l-0.063 3.7-19 0.059z" fill="url(#linearGradient4)" stroke-width=".11"/><path d="m165 26c-3.3-0.59-5.3-2.2-6-5-0.18-0.67-0.2-1.4-0.2-7.9 0-7.9-0.01-7.8 0.76-9.4 0.66-1.4 2.2-2.6 3.9-3.1 1.5-0.48 2.4-0.53 8.5-0.53h5.9v3.8l-5.4 3.2e-4c-5.7 3.4e-4 -7 0.08-8.1 0.49-0.88 0.32-1.5 1-1.7 1.8-0.084 0.39-0.13 2.8-0.13 7.1 0 7.4-0.01 7.3 0.85 8.1 0.95 0.87 2.1 1 7.1 1l3.6 0.0035v-3.7h3.8v7.4l-6-0.01c-4.6-8e-3 -6.2-0.047-6.9-0.17zm16 0.041c0.03-0.079 0.62-1.8 1.3-3.7l1.2-3.6 2-0.0013c1.5-0.0011 2 0.031 1.9 0.14-0.029 0.079-0.61 1.8-1.3 3.7l-1.2 3.6-2 8.2e-4c-1.5 5.6e-4 -2-0.031-1.9-0.14zm18-0.69c-1.3-3.8-6.8-19-6.8-19-0.046-0.048-0.77 1.9-1.6 4.3-0.84 2.4-1.6 4.5-1.6 4.6-0.091 0.18-0.31 0.2-2.1 0.2-1.5 0-1.9-0.032-1.9-0.14 0.028-0.079 1.2-3.5 2.6-7.5l2.6-7.4 4 0.06 4 12c2.2 6.4 4.3 12 4.6 13l0.51 1.5h-4zm7.1-2.9v-3.7h3.9v7.4h-3.9zm9.1-7-5.1-11-0.11 10h-3.8l-0.059-15 6 0.061 10 22 1.2-2.4c0.63-1.3 3-6.2 5.2-11l4-8.4h5.8v15h-3.8l-0.03-5.2-0.03-5.2-10 21-4.2 0.062zm20 7v-3.7h3.8v7.4h-3.8zm8.9 0v-3.7h3.9v3.7h15v3.8h-19zm24 1.8v-1.9h5.4c5.7 0 6.6-0.065 7.9-0.57 0.78-0.29 1.5-0.89 1.8-1.5 0.19-0.39 0.24-0.71 0.24-1.6 0-1.3-0.19-2-0.77-2.5-0.93-0.96-1.9-1.2-5.5-1.3-2-0.075-2.9-0.15-3.6-0.33-2.9-0.72-4.6-2.3-5.3-4.8-0.24-0.91-0.27-3.3-0.053-4.3 0.48-2.3 2.2-4 4.5-4.8 1.5-0.48 2.4-0.53 8.5-0.53h5.9v3.8l-5.4 3.2e-4c-7.1 4.2e-4 -8.2 0.13-9.2 1.2-0.6 0.62-0.77 1.3-0.7 3 0.081 1.8 0.55 2.5 2 3 0.41 0.13 1.4 0.21 3.4 0.28 1.5 0.054 3.2 0.16 3.7 0.23 3.5 0.54 5.6 2.3 6.1 5.3 0.28 1.5 0.17 3.7-0.23 4.9-0.74 2.2-2.2 3.4-4.9 4.2l-1.1 0.3-13 0.078zm-101-11v-1.9h11v3.8h-11zm77 0v-1.9h19v3.8h-19zm0-11v-1.9h19v3.8h-19z" fill="#fff" stroke-width=".11"/></svg>
