<svg width="100" height="100" viewBox="0 0 100 100">
    <g fill="#fff">
        <path d="m11.49 57.6-1.8995-6.2136 4.0386-13.243 7.1948 22.047z">
            <animateTransform attributeName="transform" type="translate"
                              values="0,0; 3,6; 0,0"
                              dur="1.2s"
                              begin="0s"
                              repeatCount="indefinite"/>
        </path>
        <path d="m33.307 67.404-6.5309-6.329-9.1035-27.685 8.0447-5.6961 11.718 39.714z">
            <animateTransform attributeName="transform" type="translate"
                              values="0,0; 3,6; 0,0"
                              dur="1.2s"
                              begin="0.1s"
                              repeatCount="indefinite"/>
        </path>
        <path d="m43.261 67.356-12.904-41.762 8.6706-2.3869 13.545 44.187z">
            <animateTransform attributeName="transform" type="translate"
                              values="0,0; 3,6; 0,0"
                              dur="1.2s"
                              begin="0.2s"
                              repeatCount="indefinite"/>
        </path>
        <path d="m62.958 83.169s-14.392-44.612-18.873-60.984l8.7614-1.4199c4.6377 17.066 19.384 62.392 19.384 62.392z">
            <animateTransform attributeName="transform" type="translate"
                              values="0,0; 3,6; 0,0"
                              dur="1.2s"
                              begin="0.3s"
                              repeatCount="indefinite"/>
        </path>
        <path d="m73.185 71.003c-8.425-30.706-14.436-46.588-15.33-50.263l9.4719 0.76484 13.224 42.821-1.5154 6.6997z">
            <animateTransform attributeName="transform" type="translate"
                              values="0,0; 3,6; 0,0"
                              dur="1.2s"
                              begin="0.4s"
                              repeatCount="indefinite"/>
        </path>
        <path d="m72.679 23.292 9.9107 6.9342 8.4568 25.755-6.9763 3.6359z">
            <animateTransform attributeName="transform" type="translate"
                              values="0,0; 3,6; 0,0"
                              dur="1.2s"
                              begin="0.5s"
                              repeatCount="indefinite"/>
        </path>
    </g>
</svg>